Coordinates
version=1
nRows=7
nColumns=40
inDegrees=yes

Units are S.I. units (second, meters, Newtons, ...)
Angles are in degrees.

endheader
time	pelvis_tilt	pelvis_list	pelvis_rotation	pelvis_tx	pelvis_ty	pelvis_tz	hip_flexion_r	hip_adduction_r	hip_rotation_r	knee_angle_r	knee_angle_r_beta	ankle_angle_r	subtalar_angle_r	mtp_angle_r	hip_flexion_l	hip_adduction_l	hip_rotation_l	knee_angle_l	knee_angle_l_beta	ankle_angle_l	subtalar_angle_l	mtp_angle_l	lumbar_extension	lumbar_bending	lumbar_rotation	arm_flex_r	arm_add_r	arm_rot_r	elbow_flex_r	pro_sup_r	wrist_flex_r	wrist_dev_r	arm_flex_l	arm_add_l	arm_rot_l	elbow_flex_l	pro_sup_l	wrist_flex_l	wrist_dev_l
      0.77000000	     -1.80503260	     -2.12206403	     10.30550101	     -0.82642348	      0.88247229	     -1.41219318	     25.59647460	     -2.99908680	    -18.76123806	    -22.59815681	     -0.39441224	      2.45281628	     -6.64577765	      8.58115096	     -2.18312411	      5.10894724	      5.54319899	    -31.53347355	     -0.55036294	     12.37070823	      0.33117880	     -4.84130613	     -2.27179163	      0.44478422	    -11.61395030	     -4.69456662	     -5.48333736	    -16.45481002	     22.53805465	     89.95437384	      0.00000000	      0.00000000	      9.28267248	     12.14425647	     13.67206381	     42.72690382	     89.95437384	      0.00000000	      0.00000000
      0.78000000	     -1.90794699	     -2.79137413	     10.47555446	     -0.81806952	      0.88224953	     -1.41091567	     25.70269708	     -2.40937844	    -19.36091871	    -23.34926792	     -0.40752160	      0.77509320	     -7.57414694	      8.32634520	     -1.86539152	      5.90907804	      4.72828153	    -32.60918940	     -0.56913772	     11.88142149	      1.93244296	     -4.89067185	     -1.85671168	      1.21493143	    -11.81678779	     -4.40762197	     -5.55758954	    -16.76839936	     22.06854604	     89.95437384	      0.00000000	      0.00000000	      9.16214869	     11.73567481	     14.35257217	     41.99006054	     89.95437384	      0.00000000	      0.00000000
      0.79000000	     -1.96499704	     -2.90709698	     10.27943151	     -0.80900912	      0.88227720	     -1.40928182	     25.60535616	     -2.13298202	    -19.03057076	    -24.06419839	     -0.41999949	      0.55388492	     -7.66681829	      8.08057054	     -2.03045841	      6.12560556	      4.34484720	    -33.21481837	     -0.57970794	     11.20157939	      2.29441581	     -4.78531007	     -1.55241867	      1.33811317	    -11.66408581	     -4.43058598	     -5.60609833	    -16.68663160	     21.99918598	     89.95437384	      0.00000000	      0.00000000	      8.72877967	     11.62762838	     14.43195988	     41.66464359	     89.95437384	      0.00000000	      0.00000000
      0.80000000	     -1.97634049	     -3.08710118	     10.08743607	     -0.79987554	      0.88247948	     -1.40753604	     25.35301613	     -1.74719283	    -18.80687983	    -24.61686956	     -0.42964543	      0.56472560	     -7.84451166	      7.83993276	     -2.12140141	      6.44296981	      4.02806382	    -33.98989926	     -0.59323565	     10.35405674	      2.89886640	     -4.63949824	     -1.27124230	      1.52418063	    -11.50175378	     -4.41317197	     -5.66060018	    -16.64695595	     21.88687961	     89.95437384	      0.00000000	      0.00000000	      8.29530858	     11.48301198	     14.60509970	     41.32171889	     89.95437384	      0.00000000	      0.00000000
      0.81000000	     -2.03746653	     -3.32649839	      9.91487455	     -0.79074710	      0.88270923	     -1.40571833	     25.04018315	     -1.20813217	    -18.38532676	    -24.89813593	     -0.43455445	      0.74312047	     -8.01318385	      7.56672146	     -2.05061592	      6.83166666	      3.71793548	    -34.89242086	     -0.60898763	      9.22638841	      3.74652209	     -4.45888174	     -0.92083424	      1.75868446	    -11.39915080	     -4.40215841	     -5.70969539	    -16.61436069	     21.80080510	     89.95437384	      0.00000000	      0.00000000	      7.79102285	     11.35717763	     14.79632866	     40.96077614	     89.95437384	      0.00000000	      0.00000000
      0.82000000	     -2.08007391	     -3.49316490	      9.66998405	     -0.78183676	      0.88300204	     -1.40373505	     24.75979352	     -0.67872190	    -17.80623486	    -25.23591455	     -0.44044980	      0.89944407	     -7.98196308	      7.29835317	     -1.94281967	      7.11831606	      3.37482730	    -35.89212212	     -0.62643571	      8.13861154	      4.36963819	     -4.27726355	     -0.64433338	      1.89549659	    -11.17746124	     -4.39044848	     -5.74602509	    -16.53186495	     21.76394187	     89.95437384	      0.00000000	      0.00000000	      7.31549075	     11.24137909	     14.93791785	     40.65689997	     89.95437384	      0.00000000	      0.00000000
      0.83000000	     -2.17113747	     -3.68658861	      9.37697212	     -0.77302817	      0.88331844	     -1.40166518	     24.46454867	     -0.08434043	    -17.29332794	    -25.41835976	     -0.44363407	      1.25725923	     -8.02106915	      7.02519991	     -1.67269050	      7.45476573	      3.22015914	    -37.02216800	     -0.64615873	      6.80672244	      5.17347346	     -4.06068378	     -0.30755061	      2.04607890	    -10.95533716	     -4.31727529	     -5.77385746	    -16.45466786	     21.68033196	     89.95437384	      0.00000000	      0.00000000	      6.84703761	     11.12691361	     15.08169242	     40.26967277	     89.95437384	      0.00000000	      0.00000000
